<svg xmlns="http://www.w3.org/2000/svg" version="1.1" xmlns:xlink="http://www.w3.org/1999/xlink" xmlns:svgjs="http://svgjs.dev/svgjs" width="1440" height="560" preserveAspectRatio="none" viewBox="0 0 1440 560"><g mask="url(&quot;#SvgjsMask1255&quot;)" fill="none"><rect width="1440" height="560" x="0" y="0" fill="url(&quot;#SvgjsLinearGradient1256&quot;)"></rect><path d="M347.43 558.78 a128.81 128.81 0 1 0 257.62 0 a128.81 128.81 0 1 0 -257.62 0z" fill="rgba(28, 83, 142, 0.4)" class="triangle-float1"></path><path d="M396.12586396530315 378.0471320184673L223.14507157582668 411.5001403619659 322.14346151308916 529.481827230741z" fill="rgba(28, 83, 142, 0.4)" class="triangle-float3"></path><path d="M738.49 544.02 a141.81 141.81 0 1 0 283.62 0 a141.81 141.81 0 1 0 -283.62 0z" fill="rgba(28, 83, 142, 0.4)" class="triangle-float3"></path><path d="M1159.9934271843263 206.96130367949914L1112.4319812843855 289.340144459635 1194.8108220645213 336.9015903595758 1242.372267964462 254.5227495794399z" fill="rgba(28, 83, 142, 0.4)" class="triangle-float2"></path><path d="M447.48695896714946 203.02113866199636L356.4033572966119 255.60828060524187 408.9904992398574 346.69188227577945 500.074100910395 294.10474033253394z" fill="rgba(28, 83, 142, 0.4)" class="triangle-float2"></path><path d="M1090.602050181024-70.96650795067674L974.0012908229611-33.08062463952876 1128.487933492172 45.63425140738609z" fill="rgba(28, 83, 142, 0.4)" class="triangle-float2"></path></g><defs><mask id="SvgjsMask1255"><rect width="1440" height="560" fill="#ffffff"></rect></mask><linearGradient x1="15.28%" y1="-39.29%" x2="84.72%" y2="139.29%" gradientUnits="userSpaceOnUse" id="SvgjsLinearGradient1256"><stop stop-color="#0e2a47" offset="0"></stop><stop stop-color="rgba(145, 187, 227, 1)" offset="1"></stop></linearGradient><style>
                @keyframes float1 {
                    0%{transform: translate(0, 0)}
                    50%{transform: translate(-10px, 0)}
                    100%{transform: translate(0, 0)}
                }

                .triangle-float1 {
                    animation: float1 5s infinite;
                }

                @keyframes float2 {
                    0%{transform: translate(0, 0)}
                    50%{transform: translate(-5px, -5px)}
                    100%{transform: translate(0, 0)}
                }

                .triangle-float2 {
                    animation: float2 4s infinite;
                }

                @keyframes float3 {
                    0%{transform: translate(0, 0)}
                    50%{transform: translate(0, -10px)}
                    100%{transform: translate(0, 0)}
                }

                .triangle-float3 {
                    animation: float3 6s infinite;
                }
            </style></defs></svg>