<svg xmlns="http://www.w3.org/2000/svg" version="1.1" xmlns:xlink="http://www.w3.org/1999/xlink" xmlns:svgjs="http://svgjs.dev/svgjs" width="1800" height="800" preserveAspectRatio="none" viewBox="0 0 1800 800"><g mask="url(&quot;#SvgjsMask1055&quot;)" fill="none"><rect width="1800" height="800" x="0" y="0" fill="rgba(236, 239, 243, 1)"></rect><path d="M26 355L25 60" stroke-width="6" stroke="url(&quot;#SvgjsLinearGradient1056&quot;)" stroke-linecap="round" class="Down"></path><path d="M627 12L626 448" stroke-width="10" stroke="url(&quot;#SvgjsLinearGradient1056&quot;)" stroke-linecap="round" class="Down"></path><path d="M953 131L952 -273" stroke-width="6" stroke="url(&quot;#SvgjsLinearGradient1057&quot;)" stroke-linecap="round" class="Up"></path><path d="M960 279L959 -291" stroke-width="8" stroke="url(&quot;#SvgjsLinearGradient1056&quot;)" stroke-linecap="round" class="Down"></path><path d="M970 252L969 657" stroke-width="6" stroke="url(&quot;#SvgjsLinearGradient1057&quot;)" stroke-linecap="round" class="Up"></path><path d="M702 161L701 366" stroke-width="6" stroke="url(&quot;#SvgjsLinearGradient1056&quot;)" stroke-linecap="round" class="Down"></path><path d="M1290 26L1289 468" stroke-width="10" stroke="url(&quot;#SvgjsLinearGradient1057&quot;)" stroke-linecap="round" class="Up"></path><path d="M1446 104L1445 683" stroke-width="8" stroke="url(&quot;#SvgjsLinearGradient1057&quot;)" stroke-linecap="round" class="Up"></path><path d="M1055 31L1054 -443" stroke-width="10" stroke="url(&quot;#SvgjsLinearGradient1056&quot;)" stroke-linecap="round" class="Down"></path><path d="M893 541L892 841" stroke-width="6" stroke="url(&quot;#SvgjsLinearGradient1056&quot;)" stroke-linecap="round" class="Down"></path><path d="M1411 314L1410 610" stroke-width="8" stroke="url(&quot;#SvgjsLinearGradient1056&quot;)" stroke-linecap="round" class="Down"></path><path d="M1711 451L1710 837" stroke-width="6" stroke="url(&quot;#SvgjsLinearGradient1056&quot;)" stroke-linecap="round" class="Down"></path><path d="M1106 231L1105 494" stroke-width="8" stroke="url(&quot;#SvgjsLinearGradient1056&quot;)" stroke-linecap="round" class="Down"></path><path d="M26 449L25 963" stroke-width="6" stroke="url(&quot;#SvgjsLinearGradient1057&quot;)" stroke-linecap="round" class="Up"></path><path d="M751 333L750 684" stroke-width="10" stroke="url(&quot;#SvgjsLinearGradient1056&quot;)" stroke-linecap="round" class="Down"></path><path d="M1547 660L1546 1239" stroke-width="10" stroke="url(&quot;#SvgjsLinearGradient1057&quot;)" stroke-linecap="round" class="Up"></path><path d="M501 749L500 397" stroke-width="6" stroke="url(&quot;#SvgjsLinearGradient1057&quot;)" stroke-linecap="round" class="Up"></path><path d="M1227 469L1226 140" stroke-width="10" stroke="url(&quot;#SvgjsLinearGradient1057&quot;)" stroke-linecap="round" class="Up"></path><path d="M171 299L170 793" stroke-width="10" stroke="url(&quot;#SvgjsLinearGradient1056&quot;)" stroke-linecap="round" class="Down"></path><path d="M588 658L587 375" stroke-width="10" stroke="url(&quot;#SvgjsLinearGradient1056&quot;)" stroke-linecap="round" class="Down"></path><path d="M1734 125L1733 373" stroke-width="8" stroke="url(&quot;#SvgjsLinearGradient1057&quot;)" stroke-linecap="round" class="Up"></path><path d="M425 495L424 -76" stroke-width="8" stroke="url(&quot;#SvgjsLinearGradient1057&quot;)" stroke-linecap="round" class="Up"></path><path d="M1580 366L1579 -99" stroke-width="8" stroke="url(&quot;#SvgjsLinearGradient1056&quot;)" stroke-linecap="round" class="Down"></path><path d="M1567 413L1566 -27" stroke-width="8" stroke="url(&quot;#SvgjsLinearGradient1057&quot;)" stroke-linecap="round" class="Up"></path><path d="M114 129L113 -248" stroke-width="8" stroke="url(&quot;#SvgjsLinearGradient1056&quot;)" stroke-linecap="round" class="Down"></path><path d="M1224 476L1223 709" stroke-width="10" stroke="url(&quot;#SvgjsLinearGradient1057&quot;)" stroke-linecap="round" class="Up"></path><path d="M419 74L418 -395" stroke-width="8" stroke="url(&quot;#SvgjsLinearGradient1056&quot;)" stroke-linecap="round" class="Down"></path><path d="M1666 147L1665 398" stroke-width="6" stroke="url(&quot;#SvgjsLinearGradient1056&quot;)" stroke-linecap="round" class="Down"></path><path d="M396 363L395 -37" stroke-width="6" stroke="url(&quot;#SvgjsLinearGradient1057&quot;)" stroke-linecap="round" class="Up"></path><path d="M720 438L719 136" stroke-width="6" stroke="url(&quot;#SvgjsLinearGradient1057&quot;)" stroke-linecap="round" class="Up"></path><path d="M470 563L469 1141" stroke-width="6" stroke="url(&quot;#SvgjsLinearGradient1056&quot;)" stroke-linecap="round" class="Down"></path><path d="M990 185L989 545" stroke-width="10" stroke="url(&quot;#SvgjsLinearGradient1056&quot;)" stroke-linecap="round" class="Down"></path><path d="M6 557L5 1099" stroke-width="10" stroke="url(&quot;#SvgjsLinearGradient1057&quot;)" stroke-linecap="round" class="Up"></path><path d="M696 278L695 551" stroke-width="6" stroke="url(&quot;#SvgjsLinearGradient1057&quot;)" stroke-linecap="round" class="Up"></path><path d="M250 457L249 919" stroke-width="6" stroke="url(&quot;#SvgjsLinearGradient1056&quot;)" stroke-linecap="round" class="Down"></path><path d="M1229 28L1228 247" stroke-width="10" stroke="url(&quot;#SvgjsLinearGradient1057&quot;)" stroke-linecap="round" class="Up"></path><path d="M1645 758L1644 185" stroke-width="6" stroke="url(&quot;#SvgjsLinearGradient1057&quot;)" stroke-linecap="round" class="Up"></path><path d="M1533 238L1532 -308" stroke-width="10" stroke="url(&quot;#SvgjsLinearGradient1056&quot;)" stroke-linecap="round" class="Down"></path><path d="M567 78L566 -317" stroke-width="10" stroke="url(&quot;#SvgjsLinearGradient1056&quot;)" stroke-linecap="round" class="Down"></path><path d="M271 600L270 237" stroke-width="6" stroke="url(&quot;#SvgjsLinearGradient1056&quot;)" stroke-linecap="round" class="Down"></path><path d="M304 705L303 967" stroke-width="6" stroke="url(&quot;#SvgjsLinearGradient1056&quot;)" stroke-linecap="round" class="Down"></path><path d="M304 566L303 968" stroke-width="8" stroke="url(&quot;#SvgjsLinearGradient1057&quot;)" stroke-linecap="round" class="Up"></path><path d="M546 394L545 912" stroke-width="10" stroke="url(&quot;#SvgjsLinearGradient1056&quot;)" stroke-linecap="round" class="Down"></path><path d="M1256 187L1255 720" stroke-width="10" stroke="url(&quot;#SvgjsLinearGradient1056&quot;)" stroke-linecap="round" class="Down"></path><path d="M699 189L698 724" stroke-width="10" stroke="url(&quot;#SvgjsLinearGradient1056&quot;)" stroke-linecap="round" class="Down"></path></g><defs><mask id="SvgjsMask1055"><rect width="1800" height="800" fill="#ffffff"></rect></mask><linearGradient x1="0%" y1="0%" x2="0%" y2="100%" id="SvgjsLinearGradient1056"><stop stop-color="rgba(189, 208, 229, 0)" offset="0"></stop><stop stop-color="rgba(189, 208, 229, 1)" offset="1"></stop></linearGradient><linearGradient x1="0%" y1="100%" x2="0%" y2="0%" id="SvgjsLinearGradient1057"><stop stop-color="rgba(189, 208, 229, 0)" offset="0"></stop><stop stop-color="rgba(189, 208, 229, 1)" offset="1"></stop></linearGradient></defs></svg>